HIERARCHY
ROOT root
{
	OFFSET 0.000000 0.000000 0.000000
	CHANNELS 6 Xposition Yposition Zposition Zrotation Yrotation Xrotation
	JOINT lhip
	{
		OFFSET 0.058581 -0.082280 -0.017664
		CHANNELS 3 Zrotation Yrotation Xrotation
		JOINT lknee
		{
			OFFSET 0.043451 -0.386469 0.008037
			CHANNELS 3 Zrotation Yrotation Xrotation
			JOINT lankle
			{
				OFFSET -0.014790 -0.426874 -0.037428
				CHANNELS 3 Zrotation Yrotation Xrotation
				JOINT ltoe
				{
					OFFSET 0.041054 -0.060286 0.122042
					CHANNELS 3 Zrotation Yrotation Xrotation
					End Site
					{
						OFFSET 0.000000 0.000000 0.000000
					}
				}
			}
		}
	}
	JOINT rhip
	{
		OFFSET -0.060310 -0.090513 -0.013543
		CHANNELS 3 Zrotation Yrotation Xrotation
		JOINT rknee
		{
			OFFSET -0.043257 -0.383688 -0.004843
			CHANNELS 3 Zrotation Yrotation Xrotation
			JOINT rankle
			{
				OFFSET 0.019056 -0.420046 -0.034562
				CHANNELS 3 Zrotation Yrotation Xrotation
				JOINT rtoe
				{
					OFFSET -0.034840 -0.062106 0.130323
					CHANNELS 3 Zrotation Yrotation Xrotation
					End Site
					{
						OFFSET 0.000000 0.000000 0.000000
					}
				}
			}
		}
	}
	JOINT lowerback
	{
		OFFSET 0.004439 0.124404 -0.038385
		CHANNELS 3 Zrotation Yrotation Xrotation
		JOINT upperback
		{
			OFFSET 0.004488 0.137956 0.026820
			CHANNELS 3 Zrotation Yrotation Xrotation
			JOINT chest
			{
				OFFSET -0.002265 0.056032 0.002855
				CHANNELS 3 Zrotation Yrotation Xrotation
				JOINT lowerneck
				{
					OFFSET -0.013390 0.211636 -0.033468
					CHANNELS 3 Zrotation Yrotation Xrotation
					JOINT upperneck
					{
						OFFSET 0.010113 0.088937 0.050410
						CHANNELS 3 Zrotation Yrotation Xrotation
						End Site
						{
							OFFSET 0.000000 0.000000 0.000000
						}
					}
				}
				JOINT lclavicle
				{
					OFFSET 0.071702 0.114000 -0.018898
					CHANNELS 3 Zrotation Yrotation Xrotation
					JOINT lshoulder
					{
						OFFSET 0.122921 0.045205 -0.019046
						CHANNELS 3 Zrotation Yrotation Xrotation
						JOINT lelbow
						{
							OFFSET 0.255332 -0.015649 -0.022946
							CHANNELS 3 Zrotation Yrotation Xrotation
							JOINT lwrist
							{
								OFFSET 0.265709 0.012698 -0.007375
								CHANNELS 3 Zrotation Yrotation Xrotation
								End Site
								{
									OFFSET 0.000000 0.000000 0.000000
								}
							}
						}
					}
				}
				JOINT rclavicle
				{
					OFFSET -0.082954 0.112472 -0.023707
					CHANNELS 3 Zrotation Yrotation Xrotation
					JOINT rshoulder
					{
						OFFSET -0.113228 0.046853 -0.008472
						CHANNELS 3 Zrotation Yrotation Xrotation
						JOINT relbow
						{
							OFFSET -0.260127 -0.014369 -0.031269
							CHANNELS 3 Zrotation Yrotation Xrotation
							JOINT rwrist
							{
								OFFSET -0.269108 0.006794 -0.006027
								CHANNELS 3 Zrotation Yrotation Xrotation
								End Site
								{
									OFFSET 0.000000 0.000000 0.000000
								}
							}
						}
					}
				}
			}
		}
	}
}
MOTION
Frames: 8
Frame Time: 0.033333
0.476099 0.619650 0.888356 110.245516 8.087813 83.052968 -7.868172 7.636787 -2.948229 -14.213121 1.328972 54.115830 -12.324551 -7.121758 -7.367234 0.000000 -0.000000 0.000000 5.751083 10.458564 -36.978485 -1.711907 -18.172620 46.883778 -4.970098 -11.831626 -8.323670 0.000000 -0.000000 0.000000 4.438571 -16.136703 22.731949 16.932619 -13.637420 -14.384317 6.277991 -13.338544 0.129391 -0.854141 4.623323 4.414361 0.534418 4.080546 10.820546 -6.975638 -31.430151 -2.410850 -92.558287 -45.352169 50.504634 10.592828 -54.192669 21.665499 3.413059 -19.438246 -3.366950 17.580517 -10.450966 -5.460190 59.135543 -16.596174 8.783092 -25.324019 30.551820 -8.139934 -2.862087 3.174143 -25.606926 
0.492237 0.640130 0.900841 112.277975 6.785212 84.225543 -5.300533 6.103643 -5.349739 -13.101205 3.626105 57.520750 -8.227639 -4.435542 -12.017881 0.000000 -0.000000 0.000000 4.000536 7.385332 -35.441821 -1.729309 -17.464671 46.190520 -4.641523 -10.575885 -10.009952 0.000000 -0.000000 0.000000 4.093412 -13.092853 20.507942 15.931791 -12.721872 -12.940469 5.976372 -12.297151 -0.197048 -0.653218 2.780446 2.998223 1.280850 1.181984 10.896088 -6.685875 -31.002981 -2.741311 -90.728786 -44.861365 49.723727 4.292510 -58.015532 24.329262 6.856922 -17.252339 -6.637858 17.120734 -7.552200 -4.478966 61.827553 -14.617066 8.467577 -25.090633 25.062059 -11.227940 -2.700755 1.714329 -26.010380 
0.504173 0.657808 0.915611 111.660173 5.777851 84.263293 -1.905888 4.530482 -7.551887 -10.293486 7.698904 60.501911 -4.190123 2.135128 -15.696838 0.000000 -0.000000 0.000000 3.140764 7.721142 -32.731182 -1.132836 -16.252462 43.708464 -4.074883 -11.763954 -10.016644 0.000000 -0.000000 0.000000 2.970788 -9.860638 20.056601 14.598590 -10.064174 -10.973494 6.149153 -10.767893 -0.539132 -0.134307 -0.126986 1.278626 1.815115 -1.047079 11.200062 -8.258918 -29.517930 -1.469351 -86.850549 -42.798491 47.078590 0.821842 -60.647562 25.895515 10.220746 -15.861914 -10.024719 17.313760 -3.925489 -4.062121 61.219166 -12.551649 10.027472 -22.552341 21.040883 -12.300613 0.227000 1.285374 -28.199644 
0.515398 0.675244 0.930139 111.103782 4.240420 84.526143 0.991540 2.988656 -9.590613 -7.092214 10.251339 61.904690 -1.623016 6.673441 -17.320014 0.000000 -0.000000 0.000000 2.072514 7.104635 -30.206623 -0.538074 -13.834441 40.771192 -3.864662 -12.616805 -9.473249 0.000000 -0.000000 0.000000 1.871231 -7.469680 19.456941 12.911531 -7.986620 -9.792048 5.863839 -9.423587 -0.964779 0.336632 -3.092346 0.708546 2.296057 -1.675621 11.160480 -11.192098 -25.879309 0.428965 -80.321601 -39.307725 41.758774 -4.504867 -62.616840 30.529226 10.993469 -14.659003 -12.824069 17.782060 -1.159986 -3.296285 59.328866 -10.291935 11.214006 -21.254669 19.888005 -11.323866 5.374014 2.543245 -25.245349 
0.521251 0.692583 0.944603 112.005946 2.697713 84.959405 2.571438 1.139837 -12.636919 -5.496414 9.085498 61.367025 0.590811 9.754870 -18.737756 0.000000 -0.000000 0.000000 0.435945 4.782061 -27.871877 -0.060474 -12.019364 37.478929 -3.034563 -12.870846 -9.098342 0.000000 -0.000000 0.000000 1.799214 -5.900849 19.882339 10.976570 -6.888913 -10.331271 5.005566 -8.711399 -0.948288 1.510684 -5.298279 -1.367460 2.326388 -2.389057 12.070523 -14.022309 -21.084243 0.980150 -72.702515 -35.802644 34.848816 -9.030992 -61.764100 34.142666 7.131297 -14.918926 -12.101804 17.964202 -0.609108 -3.682476 57.665261 -6.584068 11.151986 -21.369448 20.453212 -10.834516 7.910118 4.065962 -19.215292 
0.530761 0.709353 0.958078 111.906934 1.490146 85.164232 4.325123 1.032898 -13.952867 -5.884703 5.192778 57.722670 0.694896 10.358308 -19.878959 0.000000 -0.000000 0.000000 -0.467305 2.318244 -25.065107 -0.079956 -10.082288 33.971654 -2.486711 -11.706971 -8.398313 0.000000 -0.000000 0.000000 1.762518 -4.574478 18.980685 9.083057 -6.321646 -9.189344 4.211860 -7.868139 -1.348945 1.927031 -7.074866 -0.705054 3.181971 -2.274290 10.511035 -16.727674 -17.178158 1.288030 -64.241288 -31.671295 26.985103 -8.760645 -59.310110 33.347127 4.266412 -13.126864 -10.911035 18.001674 -0.265512 -3.195765 55.699917 -3.457967 9.575173 -22.240789 24.909998 -12.129371 5.902910 3.895151 -17.896543 
0.535946 0.726452 0.969523 111.284437 0.538612 85.840624 6.031836 0.659132 -15.030293 -6.614297 1.127024 51.346747 0.510873 10.848737 -19.020963 0.000000 -0.000000 0.000000 -1.781174 1.205995 -23.350357 0.883300 -7.895447 30.632911 -2.137297 -12.096778 -7.232813 0.000000 -0.000000 0.000000 1.948397 -3.722707 18.263800 7.257560 -5.352423 -9.044361 3.483173 -7.261762 -1.180623 2.550425 -8.176837 -0.779544 3.306677 -2.545658 10.088988 -18.347320 -13.600346 1.034655 -58.055432 -27.944571 19.976589 -2.643204 -55.045911 26.836276 1.578398 -9.359544 -8.940536 17.680198 -0.129653 -2.955616 53.999524 -0.596548 8.179477 -24.524556 30.616660 -15.837250 1.822416 3.941048 -19.181644 
0.541663 0.744199 0.978513 110.369605 0.033473 86.611967 7.542587 0.697478 -14.679609 -5.683370 -3.484267 42.137779 -1.084403 10.299350 -19.381969 0.000000 -0.000000 0.000000 -2.635227 0.185690 -21.957955 0.971331 -6.748206 27.694400 -1.247579 -11.540170 -6.698019 0.000000 -0.000000 0.000000 2.278822 -3.043750 16.981708 5.870607 -4.614268 -8.437824 2.937306 -6.700079 -1.016554 3.049108 -8.542385 -1.073979 3.062034 -3.120579 10.329499 -19.306527 -10.535981 0.511505 -54.601480 -24.037355 14.132183 7.463785 -49.059830 16.961426 3.425834 -7.797205 -4.325158 17.105299 0.145895 -3.211513 52.231126 2.112895 6.717631 -27.657934 35.967286 -19.126640 -1.309173 5.076094 -20.809563 
